<svg xmlns="http://www.w3.org/2000/svg" width="967" height="700" viewBox="0 0 967 700" version="1.1"><path d="M 371.561 282.750 C 371.200 284.262, 370.671 286.288, 370.385 287.250 L 369.865 289 406.842 289 L 443.819 289 442.421 294.250 C 440.643 300.930, 440.647 301, 442.824 301 C 444.217 301, 445.200 302.762, 446.987 308.458 C 448.273 312.560, 449.651 315.716, 450.048 315.470 C 450.445 315.225, 451.769 310.981, 452.990 306.039 L 455.211 297.054 452.021 293.027 L 448.832 289 453.247 289 L 457.663 289 458.693 284.500 L 459.723 280 415.970 280 L 372.217 280 371.561 282.750 M 468.250 284.250 L 471.758 288.500 512.487 288.761 L 553.215 289.023 551.797 291.261 C 551.017 292.493, 549.357 295.188, 548.108 297.250 L 545.837 301 551.168 300.981 L 556.500 300.962 560.207 294.731 C 562.246 291.304, 565.084 286.587, 566.514 284.250 L 569.113 280 516.927 280 L 464.741 280 468.250 284.250 M 364.480 311.033 C 364.129 311.600, 363.457 313.406, 362.987 315.045 L 362.132 318.025 366.566 314.392 C 369.005 312.394, 371 310.588, 371 310.380 C 371 309.496, 365.062 310.091, 364.480 311.033 M 391.237 374.829 L 374.068 439.658 364.133 449.419 C 356.238 457.176, 353.982 460.028, 353.150 463.308 C 352.574 465.578, 352.206 467.539, 352.332 467.665 C 352.458 467.792, 361.004 459.487, 371.322 449.212 L 390.082 430.528 405.581 372.014 C 414.105 339.831, 421.317 312.712, 421.607 311.750 L 422.135 310 415.270 310 L 408.406 310 391.237 374.829 M 489.517 311.250 C 488.479 314.340, 484.001 331.605, 484.001 332.519 C 484 333.080, 489.209 339.155, 495.575 346.019 C 514.915 366.871, 524.089 378.903, 525.967 385.879 L 526.973 389.613 522.028 408.295 C 519.308 418.569, 516.599 427.882, 516.006 428.988 C 514.714 431.403, 515.418 431.469, 521.096 429.466 C 525.996 427.737, 529.500 424.826, 531.647 420.700 C 532.448 419.159, 535.324 409.510, 538.038 399.256 L 542.973 380.613 541.967 376.879 C 540.089 369.903, 530.915 357.871, 511.575 337.019 C 505.209 330.155, 500.005 324.080, 500.012 323.519 C 500.018 322.959, 500.688 320.025, 501.500 317 C 502.312 313.975, 502.982 311.163, 502.988 310.750 C 503.009 309.404, 489.975 309.887, 489.517 311.250 M 445.020 413.960 C 443.909 416.138, 443 418.163, 443 418.460 C 443 419.307, 490.825 419.092, 491.350 418.242 C 491.608 417.826, 492.134 415.801, 492.521 413.742 L 493.223 410 470.132 410 L 447.041 410 445.020 413.960" stroke="none" fill="#ffcf28" fill-rule="evenodd"/><path d="M 355.134 293.250 C 354.527 295.587, 352.247 304.195, 350.066 312.377 L 346.100 327.254 348.800 324.882 C 350.285 323.577, 354.494 319.695, 358.153 316.255 L 364.806 310 372.528 310 L 380.250 310 379.687 312.750 C 379.377 314.262, 369.438 351.705, 357.600 395.955 C 345.763 440.206, 336.186 476.520, 336.320 476.653 C 336.453 476.786, 345.010 468.481, 355.336 458.198 L 374.110 439.500 391.258 374.750 L 408.406 310 418.527 310 L 428.648 310 431.006 317.518 C 432.303 321.653, 433.695 324.691, 434.099 324.268 C 434.504 323.846, 436.861 315.738, 439.337 306.250 L 443.839 289 400.038 289 L 356.237 289 355.134 293.250 M 453.416 294.750 C 455.917 297.913, 459.018 301.805, 460.307 303.400 L 462.650 306.299 459.325 319.850 C 457.496 327.304, 456 334.573, 456 336.004 C 456 342.517, 464.686 354.641, 485.872 377.700 C 492.543 384.959, 497.982 391.709, 497.961 392.700 C 497.939 393.690, 496.428 399.900, 494.604 406.500 L 491.286 418.500 466.893 418.725 C 453.477 418.849, 439.984 418.961, 436.910 418.975 L 431.320 419 425.286 429.250 L 419.252 439.500 459.834 439.761 L 500.415 440.023 505.046 438.485 C 509.674 436.948, 513.726 433.502, 515.919 429.238 C 516.559 427.994, 519.308 418.569, 522.028 408.295 L 526.973 389.613 525.967 385.879 C 524.089 378.903, 514.915 366.871, 495.575 346.019 C 489.209 339.155, 484.004 333.080, 484.009 332.519 C 484.014 331.959, 485.292 326.775, 486.849 321 L 489.680 310.500 515.090 310.220 L 540.500 309.939 544.500 303.286 C 546.700 299.627, 549.538 294.916, 550.807 292.817 L 553.113 289 500.990 289 L 448.867 289 453.416 294.750" stroke="none" fill="#1da8de" fill-rule="evenodd"/><path d="M 0 350.001 L 0 700.002 483.750 699.751 L 967.500 699.500 967.751 349.750 L 968.003 -0 484.001 -0 L 0 0 0 350.001 M 0.494 350.500 C 0.494 543, 0.609 621.899, 0.750 525.831 C 0.891 429.763, 0.891 272.263, 0.750 175.831 C 0.609 79.399, 0.494 158, 0.494 350.500 M 371.104 284.500 L 369.971 289 363.104 289 L 356.237 289 355.134 293.250 C 354.527 295.587, 352.247 304.195, 350.066 312.377 L 346.100 327.254 348.800 324.904 C 350.285 323.612, 354.313 319.855, 357.750 316.556 C 361.188 313.257, 364 310.773, 364 311.035 C 364 311.298, 363.576 312.993, 363.057 314.802 L 362.113 318.091 366.945 314.046 C 370.873 310.758, 372.548 310, 375.889 310 C 378.150 310, 380 310.478, 380 311.061 C 380 311.836, 340.463 460.794, 336.354 475.500 C 336.045 476.608, 339.903 473.484, 345 468.500 C 351.111 462.524, 354.002 460.256, 353.602 461.750 C 353.271 462.988, 352.731 465.012, 352.402 466.250 C 352.044 467.596, 359.360 461.069, 370.615 450 C 380.962 439.825, 389.517 431.500, 389.627 431.500 C 389.737 431.500, 396.859 404.950, 405.453 372.500 C 414.048 340.050, 421.317 312.712, 421.607 311.750 C 421.969 310.550, 423.158 310, 425.391 310 L 428.648 310 431.006 317.518 C 432.303 321.653, 433.690 324.691, 434.090 324.268 C 434.489 323.846, 436.115 318.550, 437.702 312.500 L 440.588 301.500 442.604 301.205 L 444.620 300.911 446.973 308.414 C 448.267 312.540, 449.651 315.716, 450.048 315.470 C 450.445 315.225, 451.770 310.976, 452.993 306.028 L 455.216 297.033 458.933 301.666 L 462.650 306.299 459.325 319.850 C 457.496 327.304, 456 334.573, 456 336.004 C 456 342.517, 464.686 354.641, 485.872 377.700 C 492.543 384.959, 498.006 391.484, 498.014 392.200 C 498.021 392.915, 497.053 397.212, 495.862 401.750 L 493.697 410 470.423 410 L 447.150 410 444.812 414.250 L 442.473 418.500 436.763 419 L 431.052 419.500 425.142 429.500 L 419.231 439.500 459.365 439.785 C 503.491 440.098, 505.918 439.852, 511.954 434.456 C 513.904 432.712, 517.790 430.535, 520.589 429.616 C 525.624 427.964, 529.666 424.619, 531.919 420.238 C 532.559 418.994, 535.308 409.569, 538.028 399.295 L 542.973 380.613 541.973 376.901 C 540.142 370.100, 528.712 355.028, 512.094 337.500 C 508.444 333.650, 504.173 329.067, 502.605 327.316 L 499.752 324.132 501.484 317.066 L 503.215 310 521.858 309.968 L 540.500 309.937 543.212 305.468 L 545.923 301 551.212 300.981 L 556.500 300.962 560.207 294.731 C 562.246 291.304, 565.084 286.587, 566.514 284.250 L 569.113 280 516.936 280 L 464.759 280 468.446 284.500 L 472.134 289 465.067 289 C 457.423 289, 457.310 288.894, 458.930 283.243 L 459.860 280 416.049 280 L 372.237 280 371.104 284.500" stroke="none" fill="#fbfbfb" fill-rule="evenodd"/></svg>